<?xml version="1.0" standalone="no"?>
<!DOCTYPE svg PUBLIC "-//W3C//DTD SVG 20010904//EN"
 "http://www.w3.org/TR/2001/REC-SVG-20010904/DTD/svg10.dtd">
<svg version="1.0" xmlns="http://www.w3.org/2000/svg"
 width="178.000000pt" height="198.000000pt" viewBox="0 0 178.000000 198.000000"
 preserveAspectRatio="xMidYMid meet">

<g transform="translate(0.000000,198.000000) scale(0.100000,-0.100000)"
fill="#000000" stroke="none">
<path d="M760 1883 c-63 -36 -251 -144 -417 -240 l-303 -175 0 -487 0 -487
159 -92 c87 -51 161 -92 165 -92 3 0 6 215 6 479 l0 478 431 248 430 247 -163
94 c-90 51 -170 93 -178 93 -8 1 -67 -29 -130 -66z"/>
<path d="M1153 1307 l-423 -242 0 -197 c0 -109 2 -198 6 -198 5 0 575 326 652
372 l32 20 0 -200 0 -199 -345 -198 -345 -199 0 -85 0 -86 75 -43 c41 -23 79
-42 85 -42 6 0 200 109 431 243 l419 242 0 487 0 486 -71 41 c-39 23 -76 41
-82 40 -7 0 -202 -109 -434 -242z"/>
</g>
</svg>
